<?xml version="1.0" encoding="utf-8"?>
<!-- Generator: Adobe Illustrator 27.5.0, SVG Export Plug-In . SVG Version: 6.00 Build 0)  -->
<svg version="1.1" xmlns="http://www.w3.org/2000/svg" xmlns:xlink="http://www.w3.org/1999/xlink" x="0px" y="0px"
	 viewBox="0 0 500 500" style="enable-background:new 0 0 500 500;" xml:space="preserve">
<g id="BACKGROUND">
	<rect style="fill:#FFFFFF;" width="500" height="500"/>
</g>
<g id="OBJECTS">
	<ellipse style="fill:#E4E9ED;" cx="249.377" cy="402.161" rx="191.982" ry="13.055"/>
	<ellipse style="fill:#E4E9ED;" cx="373.662" cy="424.821" rx="30.263" ry="7.581"/>
	<g>
		<path style="fill:#DD2C52;" d="M252.764,341.593H139.372c-17.298,0-31.32,14.022-31.32,31.32l0,0
			c0,17.298,14.022,31.32,31.32,31.32h113.392V341.593z"/>
		<path style="opacity:0.49;fill:#DD2C52;" d="M134.039,394.23c-9.94,0-18.793-4.636-24.53-11.858
			c4.011,12.673,15.863,21.861,29.863,21.861h113.392V394.23H134.039z"/>
		<path style="fill:#EADFCC;" d="M400.098,394.23v-42.635H250.56c-11.773,0-21.318,9.544-21.318,21.318l0,0
			c0,11.773,9.544,21.318,21.318,21.318H400.098z"/>
		<path style="fill:#D8C9B2;" d="M229.264,372.056c-0.011,0.285-0.022,0.57-0.022,0.857l0,0c0,11.773,9.544,21.318,21.318,21.318
			h149.538v-22.175H229.264z"/>
		<path style="fill:#BA1539;" d="M250.56,394.23c-11.773,0-21.318-9.544-21.318-21.318l0,0c0-11.773,9.544-21.318,21.318-21.318
			h157.149c2.762,0,5.001-2.239,5.001-5.001l0,0c0-2.762-2.239-5.001-5.001-5.001H248.417c-17.298,0-31.32,14.022-31.32,31.32v0
			c0,17.298,14.023,31.32,31.32,31.32h159.292c2.762,0,5.001-2.239,5.001-5.001l0,0c0-2.762-2.239-5.001-5.001-5.001H250.56z"/>
		<path style="fill:#B7A895;" d="M243.314,370.381c-0.925,0-1.675,0.75-1.675,1.675c0,0.925,0.75,1.675,1.675,1.675h156.784v-3.349
			H243.314z"/>
		<polygon style="fill:#FFFFFF;" points="311.066,373.73 311.066,389.106 317.933,383.4 324.801,389.106 324.801,373.73 		"/>
	</g>
	<g>
		<path style="fill:#DB872C;" d="M217.097,247.632L217.097,247.632c0-17.298,14.022-31.32,31.32-31.32H139.372
			c-17.298,0-31.32,14.022-31.32,31.32l0,0c0,17.298,14.023,31.32,31.32,31.32h109.045
			C231.119,278.952,217.097,264.93,217.097,247.632z"/>
		<path style="opacity:0.35;fill:#DB872C;" d="M225.48,268.95h-91.441c-9.94,0-18.792-4.636-24.53-11.858
			c0.018,0.057,0.039,0.114,0.058,0.171c0.189,0.586,0.397,1.162,0.619,1.732c0.073,0.186,0.144,0.373,0.22,0.558
			c0.098,0.239,0.202,0.475,0.306,0.711c0.081,0.184,0.164,0.368,0.249,0.55c0.108,0.233,0.218,0.465,0.332,0.694
			c0.089,0.18,0.182,0.357,0.274,0.535c0.118,0.227,0.234,0.455,0.358,0.679c0.099,0.179,0.203,0.353,0.305,0.53
			c0.225,0.39,0.458,0.775,0.698,1.154c0.113,0.178,0.226,0.358,0.342,0.534c0.135,0.204,0.275,0.404,0.415,0.604
			c0.122,0.174,0.244,0.348,0.37,0.52c0.142,0.195,0.286,0.389,0.433,0.58c0.133,0.174,0.27,0.346,0.407,0.517
			c0.146,0.183,0.291,0.366,0.441,0.546c0.162,0.194,0.33,0.384,0.497,0.574c0.23,0.263,0.465,0.521,0.704,0.776
			c0.185,0.197,0.37,0.395,0.56,0.587c0.153,0.155,0.31,0.305,0.465,0.456c0.173,0.168,0.347,0.336,0.524,0.5
			c0.16,0.149,0.323,0.295,0.486,0.441c0.185,0.164,0.372,0.326,0.561,0.486c0.159,0.135,0.318,0.271,0.48,0.403
			c0.225,0.183,0.455,0.361,0.685,0.538c0.131,0.101,0.259,0.205,0.392,0.304c0.349,0.26,0.705,0.512,1.065,0.757
			c0.149,0.102,0.301,0.198,0.452,0.297c0.236,0.155,0.473,0.309,0.713,0.457c0.165,0.102,0.332,0.202,0.499,0.301
			c0.238,0.141,0.479,0.279,0.721,0.415c0.163,0.091,0.327,0.183,0.492,0.271c0.279,0.149,0.56,0.292,0.844,0.432
			c0.131,0.065,0.26,0.133,0.393,0.197c0.409,0.196,0.822,0.383,1.241,0.561c0.124,0.053,0.251,0.101,0.376,0.152
			c0.308,0.126,0.618,0.25,0.931,0.367c0.163,0.061,0.328,0.119,0.492,0.177c0.286,0.101,0.575,0.199,0.865,0.293
			c0.166,0.053,0.332,0.107,0.5,0.157c0.315,0.096,0.633,0.185,0.953,0.271c0.14,0.038,0.278,0.078,0.419,0.114
			c0.456,0.116,0.916,0.223,1.38,0.318c0.08,0.017,0.162,0.029,0.242,0.045c0.389,0.077,0.781,0.148,1.175,0.21
			c0.16,0.025,0.32,0.047,0.481,0.069c0.323,0.046,0.648,0.088,0.975,0.124c0.173,0.019,0.346,0.037,0.52,0.053
			c0.336,0.031,0.673,0.056,1.011,0.077c0.155,0.009,0.309,0.021,0.464,0.029c0.49,0.023,0.983,0.037,1.479,0.037h109.045
			C239.356,278.952,231.199,275.1,225.48,268.95z"/>
		<path style="fill:#EADFCC;" d="M400.098,268.95v-42.635H250.56c-11.773,0-21.318,9.544-21.318,21.318l0,0
			c0,11.773,9.544,21.318,21.318,21.318H400.098z"/>
		<path style="fill:#D8C9B2;" d="M229.264,246.775c-0.011,0.285-0.022,0.57-0.022,0.857l0,0c0,11.773,9.544,21.318,21.318,21.318
			h149.538v-22.175H229.264z"/>
		<path style="fill:#C45D18;" d="M250.56,268.95c-11.773,0-21.318-9.544-21.318-21.318v0c0-11.773,9.544-21.317,21.318-21.317
			h157.149c2.762,0,5.001-2.239,5.001-5.001l0,0c0-2.762-2.239-5.001-5.001-5.001H248.417c-17.298,0-31.32,14.022-31.32,31.32l0,0
			c0,17.298,14.023,31.32,31.32,31.32h159.292c2.762,0,5.001-2.239,5.001-5.001l0,0c0-2.762-2.239-5.001-5.001-5.001H250.56z"/>
		<path style="fill:#B7A895;" d="M243.314,245.1c-0.925,0-1.675,0.75-1.675,1.675c0,0.925,0.75,1.675,1.675,1.675h156.784V245.1
			H243.314z"/>
		<polygon style="fill:#FFFFFF;" points="255.516,248.45 255.516,263.825 262.384,258.119 269.252,263.825 269.252,248.45 		"/>
	</g>
	<polygon style="opacity:0.2;fill:#DB872C;" points="226.36,233.113 220.686,239.733 189.792,216.09 197.521,214.289 	"/>
	<g>
		<path style="fill:#A03A7E;" d="M340.109,278.952H231.064c17.298,0,31.32,14.022,31.32,31.32v0c0,17.298-14.022,31.32-31.32,31.32
			h109.045c17.298,0,31.32-14.022,31.32-31.32v0C371.429,292.975,357.407,278.952,340.109,278.952z"/>
		<path style="opacity:0.17;fill:#A03A7E;" d="M342.053,341.527c0.338-0.021,0.676-0.046,1.011-0.077
			c0.174-0.016,0.347-0.034,0.521-0.053c0.326-0.036,0.65-0.078,0.973-0.124c0.161-0.023,0.322-0.044,0.482-0.069
			c0.393-0.062,0.784-0.133,1.172-0.209c0.081-0.016,0.164-0.029,0.245-0.046c0.464-0.095,0.923-0.203,1.379-0.318
			c0.141-0.036,0.28-0.076,0.421-0.114c0.319-0.086,0.636-0.174,0.95-0.27c0.168-0.051,0.335-0.104,0.502-0.158
			c0.289-0.093,0.577-0.19,0.862-0.292c0.165-0.059,0.33-0.117,0.494-0.178c0.312-0.117,0.62-0.24,0.927-0.366
			c0.126-0.052,0.255-0.1,0.38-0.154c0.418-0.178,0.831-0.365,1.239-0.56c0.134-0.064,0.265-0.133,0.397-0.199
			c0.282-0.14,0.562-0.282,0.839-0.43c0.166-0.089,0.331-0.181,0.495-0.273c0.241-0.135,0.48-0.272,0.717-0.413
			c0.168-0.1,0.336-0.2,0.502-0.303c0.239-0.148,0.474-0.301,0.709-0.454c0.152-0.1,0.306-0.198,0.456-0.3
			c0.36-0.245,0.715-0.497,1.063-0.756c0.134-0.1,0.264-0.205,0.396-0.307c0.228-0.176,0.456-0.352,0.68-0.534
			c0.163-0.133,0.323-0.27,0.484-0.406c0.187-0.159,0.373-0.319,0.556-0.482c0.165-0.146,0.328-0.294,0.489-0.444
			c0.176-0.163,0.348-0.329,0.52-0.496c0.157-0.153,0.316-0.304,0.47-0.46c0.187-0.189,0.368-0.383,0.549-0.576
			c0.245-0.261,0.486-0.526,0.722-0.796c0.164-0.187,0.328-0.372,0.487-0.563c0.151-0.181,0.298-0.366,0.445-0.551
			c0.135-0.169,0.27-0.339,0.402-0.512c0.148-0.193,0.293-0.388,0.436-0.585c0.124-0.17,0.245-0.342,0.366-0.514
			c0.141-0.202,0.282-0.404,0.419-0.609c0.115-0.173,0.224-0.349,0.336-0.524c0.248-0.39,0.488-0.786,0.719-1.188
			c0.096-0.167,0.196-0.333,0.289-0.502c0.125-0.226,0.242-0.457,0.362-0.686c0.091-0.175,0.182-0.35,0.27-0.527
			c0.115-0.232,0.225-0.465,0.334-0.7c0.084-0.18,0.165-0.361,0.246-0.543c0.105-0.238,0.209-0.476,0.308-0.717
			c0.075-0.181,0.145-0.365,0.216-0.548c0.245-0.628,0.475-1.264,0.68-1.911c-5.737,7.222-14.59,11.858-24.53,11.858h-91.441
			c-5.719,6.15-13.876,10.003-22.937,10.003h109.045c0.496,0,0.989-0.015,1.479-0.037
			C341.744,341.548,341.898,341.536,342.053,341.527z"/>
		<path style="fill:#EADFCC;" d="M79.382,331.59v-42.635h149.538c11.773,0,21.318,9.544,21.318,21.318v0
			c0,11.773-9.544,21.318-21.318,21.318H79.382z"/>
		<path style="fill:#D8C9B2;" d="M250.216,309.415c0.011,0.285,0.022,0.57,0.022,0.857v0c0,11.773-9.544,21.318-21.318,21.318
			H79.382v-22.175H250.216z"/>
		<path style="fill:#8C2574;" d="M228.921,331.59c11.773,0,21.318-9.544,21.318-21.318l0,0c0-11.773-9.544-21.318-21.317-21.318
			H71.772c-2.762,0-5.001-2.239-5.001-5.001l0,0c0-2.762,2.239-5.001,5.001-5.001h159.292c17.298,0,31.32,14.023,31.32,31.32v0
			c0,17.298-14.022,31.32-31.32,31.32H71.772c-2.762,0-5.001-2.239-5.001-5.001l0,0c0-2.762,2.239-5.001,5.001-5.001H228.921z"/>
		<path style="fill:#B7A895;" d="M236.167,311.09c0.925,0,1.675-0.75,1.675-1.675c0-0.925-0.75-1.674-1.675-1.674H79.382v3.349
			H236.167z"/>
		<polygon style="fill:#FFFFFF;" points="96.194,311.09 96.194,326.466 103.062,320.759 109.93,326.466 109.93,311.09 		"/>
	</g>
	<g>
		<path style="fill:#382C4D;" d="M339.352,207.197c0,0-7.361-3.258-8.159,5.729c-0.798,8.987-1.618,20.473-9.116,26.719
			c-12.585,10.484,15.583,4.162,15.583,4.162l6.595-26.018L339.352,207.197z"/>
		<g style="opacity:0.2;">
			<path style="fill:#DD2C52;" d="M380.542,404.235h-11.396c-0.936-16.465-2.449-45.915-1.967-55.476
				c-0.236,4.171-1.636,36.732-2.866,55.476h-12.03c-1.523-15.708-3.509-43.324-0.142-54.947c0,0-48.695,4.464-33.621-32.892
				l29.384-0.927c0,0,26.386,20.617,31.625,31.029C383.294,353.998,381.714,386.588,380.542,404.235z"/>
			<path style="fill:#DD2C52;" d="M347.906,315.465c0.005-0.044,0.009-0.081,0.013-0.125
				C347.911,315.417,347.906,315.465,347.906,315.465z"/>
		</g>
		<path style="fill:#382C4D;" d="M378.261,418.414c0,0,2.394,0.116,6.94,2.785c7.092,4.163,5.075,10.215-4.232,6.05
			c-6.578-2.944-10.1-5.618-6.715-8.27C377.641,416.326,378.261,418.414,378.261,418.414z"/>
		<path style="fill:#E9B585;" d="M379.864,413.282l-0.292,6.49c0,0-2.188,3.208-5.834,0l-0.583-6.49H379.864z"/>
		<path style="fill:#382C4D;" d="M362.467,418.646c0,0,2.394,0.116,6.94,2.785c7.092,4.163,5.075,10.215-4.232,6.05
			c-6.578-2.944-10.1-5.619-6.715-8.271C361.846,416.559,362.467,418.646,362.467,418.646z"/>
		<path style="fill:#E9B585;" d="M364.069,413.515l-0.292,6.49c0,0-2.188,3.209-5.834,0l-0.583-6.49H364.069z"/>
		<g>
			<path style="fill:#663A43;" d="M349.797,313.574c0,0,0.005-0.048,0.013-0.125C349.806,313.492,349.802,313.529,349.797,313.574z"
				/>
			<path style="fill:#3A4068;" d="M320.41,314.508l29.387-0.935c0,0,26.389,20.626,31.623,31.037
				c5.234,10.412,0.153,69.187,0.153,69.187s-5.838,3.189-9.865,0c0,0-3.316-53.398-2.637-66.928
				c-0.303,5.315-2.497,56.807-3.806,66.928c0,0-7.046,2.786-9.864,0c0,0-6.2-49.695-1.369-66.405
				C354.033,347.393,305.341,351.862,320.41,314.508z"/>
		</g>
		<path style="fill:#38A59D;" d="M353.475,255.899c0,0,2.142,6.523,0.092,13.7c-3.27,11.449-5.208,18.158-5.218,23.141
			c-0.016,7.275,1.303,9.956,0.884,16.102c-0.182,2.668,2.15,6.754-0.426,7.472c-8.038,2.24-18.293,1.255-24.727,0.232
			c-3.379-0.537-5.66-3.729-5.099-7.104c0.791-4.752,0.447-11.49,0.833-17.895c0.675-11.206,1.387-20.789,1.387-20.789
			c-3.32,14.004-5.618,45.955-5.618,45.955c-3.202,1.965-8.115-0.26-8.115-0.26s2.456-53.281,5.299-64.108
			c2.844-10.827,13.875-9.577,13.875-9.577l21.238-1.153c0,0,28.634,7.959,40.319,19.483v11.21
			C388.2,272.308,377.214,258.8,353.475,255.899z"/>
		<g>
			<path style="fill:#382C4D;" d="M297.231,323.395l113.124-78.022c0.791-0.545,1.874-0.346,2.419,0.444l8.694,12.605
				c0.545,0.791,0.346,1.874-0.444,2.419l-113.123,78.022c-1.341,0.925-3.179,0.588-4.104-0.754l-7.319-10.611
				C295.552,326.158,295.889,324.32,297.231,323.395z"/>
			<path style="fill:#CDCFD1;" d="M413.168,246.39l14.433-9.954c1.229-0.848,2.913-0.539,3.761,0.691l4.834,7.008
				c0.848,1.229,0.539,2.913-0.691,3.761l-14.433,9.954L413.168,246.39z"/>
			<path style="fill:#CDCFD1;" d="M296.629,327.72l-5.845,4.031c-2.808,1.937-3.515,5.784-1.578,8.592l0,0
				c1.937,2.808,5.784,3.515,8.592,1.578l5.845-4.031L296.629,327.72z"/>
			
				<rect x="326.615" y="305.412" transform="matrix(0.5678 0.8232 -0.8232 0.5678 398.8293 -143.4449)" style="fill:#CDCFD1;" width="18.791" height="5.3"/>
			<path style="fill:#382C4D;" d="M435.406,242.99l1.485-1.024c1.923-1.326,3.488-3.106,4.559-5.182l1.155-2.241l-2.506,0.284
				c-2.321,0.263-4.541,1.094-6.463,2.42l-1.485,1.024L435.406,242.99z"/>
			<path style="fill:#CDCFD1;" d="M298.262,322.684L298.262,322.684c-2.901-4.206-1.843-9.968,2.363-12.869l30.564-21.08
				c0.913-0.63,2.164-0.4,2.794,0.513l0,0c0.63,0.913,0.4,2.164-0.513,2.794l-30.763,21.218c-2.38,1.641-2.978,4.901-1.337,7.281
				l0,0L298.262,322.684z"/>
		</g>
		<path style="fill:#E9B585;" d="M397.032,272.982c1.119-0.497,2.431-0.204,3.249,0.708l0.301,0.335
			c0.795,0.886,0.659,2.262-0.293,2.976l-5.512,4.134c-0.875,0.656-2.114,0.5-2.798-0.354l-0.365-0.455
			C389.518,276.931,394.213,274.235,397.032,272.982z"/>
		<path style="fill:#38A59D;" d="M317.305,297.457l-1.721,19.256c0,0-3.876,2.315-8.115-0.26l0.681-13.123L317.305,297.457z"/>
		<path style="fill:#E9B585;" d="M307.633,315.947c0,0-2.188,10.486,0.86,13.875c1.611,1.791,4.248,3.304,5.394,3.852
			c0.777,0.371,1.671-0.207,1.654-1.068l0,0c-0.007-0.337-0.161-0.652-0.42-0.868c-1.379-1.155-5.096-5.363-2.159-10.064
			c0,0,1.478,2.227,1.788,5.057c0.056,0.511,0.597,0.828,1.107,0.771l0,0c0.536-0.059,0.935-0.52,0.914-1.059
			c-0.079-2.069,0.174-7.074-1.53-10.576L307.633,315.947z"/>
		<path style="fill:#E9B585;" d="M340.305,217.893c0,0,0.212-2.543-2.121-0.921c-2.98,2.073-1.289,6.906,0.704,7.157
			C340.883,224.38,340.305,217.893,340.305,217.893z"/>
		<path style="fill:#E9B585;" d="M347.3,236.356c8.222,0.651,11.495-9.602,11.14-20.279c-0.144-4.338-2.072-7.038-4.311-8.715
			c-3.662-2.743-12.441-2.32-13.778,3.58c-1.144,5.049-1.802,9.257-1.935,12.709l-0.001,0c-0.918,13.681-6.859,18.376-6.859,18.376
			s-0.596,8.981,8.431,9.315c7.688,0.285,8.37-5.165,8.404-6.789c0.011-0.278-0.008-0.453-0.008-0.453
			c-1.05-3.152-1.245-5.798-1.151-7.752C347.255,236.351,347.277,236.354,347.3,236.356z"/>
		<path style="fill:#C58C5D;" d="M347.135,235.362c-7.027-1.541-7.219-10.206-7.219-10.206s-0.674,7.026,4.291,10.375
			c0.99,0.668,1.792,1.598,2.137,2.742c0.324,1.077,0.6,2.641,0.618,4.865c0.026,3.21-3.697,8.873-14.577,3.42
			c0.979,2.288,3.087,4.618,7.602,4.786c6.884,0.255,8.15-4.085,8.364-6.163c0.05-0.654,0.032-1.079,0.032-1.079
			c-0.854-2.563-1.138-4.783-1.165-6.576c-0.006-0.413-0.004-0.81,0.014-1.176h0l0,0c0.023,0.002,0.044,0.005,0.068,0.007
			c0.004,0,0.008,0,0.013,0c0.242,0.019,0.478,0.027,0.711,0.028c0.101,0,0.199-0.007,0.299-0.011
			c0.131-0.004,0.263-0.007,0.392-0.017c0.127-0.01,0.251-0.028,0.376-0.044c0.094-0.012,0.189-0.022,0.282-0.037
			c0.143-0.024,0.283-0.054,0.422-0.085c0.068-0.015,0.136-0.029,0.203-0.046c0.155-0.039,0.307-0.084,0.457-0.132
			c0.046-0.015,0.092-0.029,0.138-0.044c0.163-0.056,0.324-0.117,0.482-0.184c0.028-0.012,0.056-0.023,0.084-0.036
			c0.17-0.074,0.336-0.153,0.499-0.239c0.012-0.007,0.024-0.013,0.037-0.02c0.174-0.093,0.344-0.191,0.511-0.297
			C351.478,235.423,350.912,236.19,347.135,235.362z"/>
		<path style="fill:#382C4D;" d="M354.05,215.841c0,0-3.679,5.62-14.73,2.705c-1.589-0.419-4.452-1.97-4.26-3.602
			c0.467-3.969,1.555-12.015,14.376-11.169c4.438,0.293,8.738,3.348,9.176,7.774c0.012,0.122,0.435,4.343-2.718,4.419
			C355.536,215.977,354.487,215.977,354.05,215.841z"/>
		<path style="fill:#382C4D;" d="M353.562,219.486c0.587-0.352,1.999-0.898,5.05-0.819c0,0-2.829,0.395-4.692,1.435
			c-0.218,0.122-0.488-0.009-0.526-0.256C353.372,219.703,353.438,219.561,353.562,219.486z"/>
		<path style="fill:#382C4D;" d="M355.092,221.944c0.163,0.639,0.812,1.025,1.451,0.862c0.639-0.162,1.025-0.812,0.862-1.451
			c-0.163-0.639-0.812-1.025-1.451-0.862C355.316,220.656,354.93,221.305,355.092,221.944z"/>
		<path style="fill:#382C4D;" d="M349.563,220.503c-0.684-0.029-2.185,0.166-4.828,1.693c0,0,2.674-1.004,4.807-0.981
			c0.25,0.003,0.425-0.241,0.34-0.476C349.833,220.603,349.708,220.509,349.563,220.503z"/>
		<path style="fill:#382C4D;" d="M349.393,223.394c0.162,0.639-0.224,1.288-0.862,1.451c-0.639,0.162-1.288-0.224-1.451-0.862
			c-0.163-0.639,0.224-1.288,0.862-1.451C348.581,222.369,349.231,222.755,349.393,223.394z"/>
		<path style="fill:#F35E3B;" d="M352.237,220.935l3.591,5.984l-0.926,0.235c-1,0.254-1.995-0.431-2.114-1.456L352.237,220.935z"/>
		<path style="fill:#382C4D;" d="M351.887,231.628c-1.635,0.184-2.654-0.76-2.654-0.76s0.923,0.333,2.585,0.147
			c1.662-0.187,2.488-0.716,2.488-0.716S353.522,231.445,351.887,231.628z"/>
		<path style="fill:#382C4D;" d="M341.406,217.726c0,0-1.785,5.962-0.971,10.581c0,0-1.884-5.434-0.812-11.227L341.406,217.726z"/>
	</g>
	<path style="opacity:0.2;fill:#DB872C;" d="M195.774,205.193l-29.387-0.935c0,0-26.388,20.626-31.623,31.038
		c-5.234,10.412-0.153,69.187-0.153,69.187s0.717,0.386,1.809,0.755l0.143,3.187c-1.153,0.32-3.027,1.013-5.581,2.513
		c-7.092,4.163-5.075,10.215,4.232,6.05c6.175-2.763,9.655-5.29,7.259-7.782l0.34-3.78c0.574-0.22,1.134-0.524,1.663-0.943
		c0,0,3.316-53.398,2.637-66.928c0.303,5.315,2.497,56.807,3.805,66.928c0,0,0.498,0.195,1.271,0.429l0.168,3.746
		c-1.153,0.32-3.027,1.014-5.58,2.513c-7.092,4.163-5.075,10.215,4.232,6.05c6.175-2.763,9.655-5.29,7.259-7.783l0.349-3.882
		c0.833-0.175,1.59-0.503,2.166-1.073c0,0,5.851-50.642,1.019-67.351C161.801,237.132,203.08,237.132,195.774,205.193z"/>
	<g>
		<path style="fill:#382C4D;" d="M136.031,306.262c0,0-2.394,0.116-6.94,2.785c-7.092,4.163-5.075,10.215,4.232,6.05
			c6.578-2.944,10.1-5.619,6.715-8.271C136.652,304.174,136.031,306.262,136.031,306.262z"/>
		<path style="fill:#E9B585;" d="M134.429,301.13l0.292,6.49c0,0,2.188,3.208,5.834,0l0.583-6.49H134.429z"/>
		<path style="fill:#382C4D;" d="M151.825,306.494c0,0-2.394,0.116-6.94,2.785c-7.092,4.163-5.075,10.214,4.232,6.05
			c6.578-2.944,10.1-5.618,6.715-8.271S151.825,306.494,151.825,306.494z"/>
		<path style="fill:#E9B585;" d="M150.223,301.363l0.292,6.49c0,0,2.188,3.209,5.834,0l0.583-6.49H150.223z"/>
		<g>
			<path style="fill:#663A43;" d="M164.495,201.422c0,0-0.005-0.048-0.013-0.125C164.487,201.34,164.491,201.377,164.495,201.422z"
				/>
			<path style="fill:#663A43;" d="M193.882,202.356l-29.387-0.935c0,0-26.388,20.626-31.623,31.037
				c-5.234,10.412-0.153,69.187-0.153,69.187s5.838,3.189,9.865,0c0,0,3.316-53.398,2.637-66.928
				c0.303,5.315,2.497,56.807,3.805,66.928c0,0,7.046,2.787,9.864,0c0,0,5.85-50.642,1.019-67.351
				C159.91,234.295,201.188,234.295,193.882,202.356z"/>
		</g>
		<path style="fill:#E55D3E;" d="M160.817,143.747c0,0-0.185,24.122-0.163,34.26c0.016,7.275-0.184,14.318,0.234,20.465
			c0.181,2.668,2.021,4.973,4.597,5.691c8.039,2.241,18.293,1.255,24.727,0.232c3.378-0.537,5.66-3.729,5.099-7.104
			c-0.791-4.752-0.447-11.49-0.833-17.895c-0.675-11.206-1.387-20.789-1.387-20.789c3.32,14.004,5.618,45.955,5.618,45.955
			c3.201,1.965,8.115-0.26,8.115-0.26s-2.456-53.281-5.299-64.108c-2.844-10.827-13.875-9.578-13.875-9.578l-21.238-1.153
			c0,0-28.634,7.959-40.319,19.483v11.21C126.093,160.156,137.078,146.648,160.817,143.747z"/>
		<path style="fill:#6B1A2D;" d="M186.038,130.529l-19.626-1.066c0,0-0.093,0.004-0.248,0.013
			c-1.085,2.808-3.612,13.686,6.488,7.021C172.652,136.497,184.183,146.902,186.038,130.529z"/>
		<path style="fill:#E9B585;" d="M180.351,97.356c-0.592-6.27-9.599-7.879-13.746-5.536c-2.536,1.432-4.887,3.962-5.615,8.421
			c-1.792,10.976,0.218,21.998,8.793,22.424C179.335,123.14,182.076,115.611,180.351,97.356z"/>
		<path style="fill:#E9B585;" d="M169.686,118.79c0,0,1.243,4.901-2.056,11.726c0,0-1.058,4.19,4.15,5.8
			c5.208,1.61,13.499-5.692,13.499-5.692s-5.507-5.641-4.627-19.888C180.653,110.736,172.823,110.489,169.686,118.79z"/>
		<path style="fill:#E9B585;" d="M179.47,104.538c0,0,0.121-2.653,2.312-0.667c2.8,2.538,0.409,7.302-1.683,7.295
			C178.007,111.158,179.47,104.538,179.47,104.538z"/>
		<path style="fill:#382C4D;" d="M159.147,97.689c0,0,0.463-7.945,12.022-8.366c5.507-0.201,9.304,3.657,9.799,5.679
			c0.039,0.161,0.086,0.302,0.142,0.409c0.094,0.18,0.121,0.856,0.532,0.816c2.646-0.255,3.637,6.284,0.164,7.583l-0.024,0.061
			c0,0-2.747-2.084-2.374,2.113c0.492,5.549-2.186,2.47-2.688-4.847C176.72,101.137,159.125,104.47,159.147,97.689z"/>
		<path style="fill:#382C4D;" d="M165.084,106.509c-0.678-0.218-2.238-0.438-5.313,0.363c0,0,2.961-0.268,5.096,0.346
			c0.25,0.072,0.493-0.125,0.473-0.384C165.328,106.684,165.228,106.556,165.084,106.509z"/>
		<path style="fill:#382C4D;" d="M164.113,109.363c-0.014,0.686-0.581,1.231-1.267,1.217c-0.686-0.014-1.231-0.581-1.217-1.267
			c0.014-0.686,0.581-1.231,1.267-1.217C163.582,108.11,164.127,108.677,164.113,109.363z"/>
		<path style="fill:#382C4D;" d="M169.379,106.595c0.686-0.19,2.254-0.348,5.294,0.576c0,0-2.948-0.386-5.105,0.142
			c-0.252,0.062-0.487-0.144-0.457-0.402C169.128,106.761,169.233,106.636,169.379,106.595z"/>
		<path style="fill:#382C4D;" d="M170.234,109.486c-0.014,0.686,0.531,1.253,1.217,1.267c0.686,0.014,1.253-0.531,1.267-1.217
			c0.014-0.686-0.531-1.253-1.217-1.267C170.815,108.255,170.248,108.8,170.234,109.486z"/>
		<path style="fill:#F35E3B;" d="M167.214,106.829l-2.745,8.527l1.226,0.025c1.324,0.027,2.368-1.12,2.218-2.436L167.214,106.829z"
			/>
		<path style="fill:#382C4D;" d="M167.485,118.56c1.712,0.035,2.679-1.041,2.679-1.041s-0.925,0.434-2.666,0.399
			c-1.741-0.035-2.648-0.505-2.648-0.505S165.773,118.526,167.485,118.56z"/>
		<path style="fill:#C58C5D;" d="M169.631,128.049c0.309-4.028,2.286-5.333,2.286-5.333c8.661-2.912,6.986-10.628,6.986-10.628
			s-0.149,8.845-7.609,9.498c-4.01,0.351-5.699-0.442-6.419-0.776c1.312,1.092,2.934,1.758,4.909,1.856
			c0.024,0.001,0.047,0,0.071,0.002c-0.163,2.03-0.719,4.735-2.224,7.849c0,0-1.058,4.19,4.15,5.8
			c2.931,0.906,6.838-1.01,9.695-2.86C174.421,136.105,169.347,131.743,169.631,128.049z"/>
		<g>
			<polygon style="fill:#E2CBAA;" points="98.381,129.956 78.692,127.146 88.343,144.536 			"/>
			<path style="fill:#382C4D;" d="M86.66,128.283c-3.878-0.553-7.968-1.137-7.968-1.137l3.906,7.037L86.66,128.283z"/>
			
				<rect x="144.522" y="105.704" transform="matrix(0.5671 -0.8237 0.8237 0.5671 -80.6759 203.6318)" style="fill:#1B66BF;" width="17.7" height="145.713"/>
			
				<rect x="151.456" y="102.059" transform="matrix(0.5671 -0.8237 0.8237 0.5671 -76.5875 204.1206)" style="fill:#1C4FB5;" width="8.85" height="145.713"/>
			
				<rect x="206.646" y="218.764" transform="matrix(0.5671 -0.8237 0.8237 0.5671 -89.0095 273.319)" style="fill:#CDCFD1;" width="17.7" height="5.136"/>
			<path style="fill:#382C4D;" d="M212.593,230.078l7.805,5.373c2.566,1.767,6.079,1.119,7.846-1.448l3.639-5.286
				c1.767-2.566,1.119-6.079-1.448-7.846l-7.805-5.373L212.593,230.078z"/>
		</g>
		<path style="fill:#E9B585;" d="M206.659,203.795c0,0,2.188,10.486-0.86,13.875c-1.611,1.791-4.247,3.304-5.393,3.852
			c-0.777,0.372-1.671-0.206-1.654-1.068l0,0c0.007-0.337,0.161-0.652,0.42-0.868c1.379-1.155,5.096-5.363,2.159-10.064
			c0,0-1.478,2.227-1.788,5.057c-0.056,0.511-0.597,0.828-1.107,0.771l0,0c-0.536-0.06-0.935-0.52-0.914-1.059
			c0.079-2.069-0.174-7.074,1.53-10.576L206.659,203.795z"/>
		<path style="fill:#E55D3E;" d="M198.231,198.553l0.478,6.008c0,0,3.876,2.314,8.115-0.26l-0.117-2.433L198.231,198.553z"/>
		<path style="fill:#E9B585;" d="M117.26,160.83c-1.119-0.497-2.431-0.204-3.249,0.708l-0.301,0.335
			c-0.795,0.886-0.659,2.262,0.293,2.976l5.512,4.134c0.875,0.657,2.114,0.5,2.798-0.354l0.365-0.455
			C124.774,164.779,120.08,162.083,117.26,160.83z"/>
	</g>
	<g>
		<g>
			<g>
				<path style="fill:#198477;" d="M148.249,404.233c10.87-3.766,19.619-12.534,23.278-23.986l9.711-30.391l-29.951,9.853
					c-14.533,4.781-24.685,18.122-25.565,33.599l-0.622,10.925H148.249z"/>
			</g>
			<g>
				<path style="fill:#38A59D;" d="M127.648,404.233l53.59-54.377l-29.951,9.853c-14.533,4.781-24.685,18.122-25.565,33.599
					l-0.622,10.925H127.648z"/>
			</g>
			<polygon style="fill:#5FDDD1;" points="128.388,404.233 139.904,392.548 151.495,392.548 151.495,391.486 140.951,391.486 
				149.777,382.53 161.368,382.53 161.368,381.468 150.824,381.468 159.65,372.512 171.241,372.512 171.241,371.45 160.697,371.45 
				180.883,350.967 181.238,349.856 180.143,350.216 160.054,370.6 160.054,360.098 159.007,360.098 159.007,371.662 
				150.181,380.618 150.181,370.116 149.134,370.116 149.134,381.68 140.307,390.637 140.308,380.135 139.261,380.135 
				139.261,391.699 126.908,404.233 			"/>
		</g>
		<g>
			<g>
				<path style="fill:#198477;" d="M127.086,404.233l-0.622-10.925c-0.881-15.476-11.033-28.818-25.566-33.599l-29.951-9.853
					l9.71,30.391c3.659,11.452,12.408,20.22,23.278,23.986H127.086z"/>
			</g>
			<g>
				<path style="fill:#38A59D;" d="M124.537,404.233l-53.59-54.377l9.71,30.391c3.659,11.452,12.408,20.22,23.278,23.986H124.537z"
					/>
			</g>
			<polygon style="fill:#5FDDD1;" points="90.914,382.431 102.311,382.431 111.138,391.388 100.788,391.387 100.788,392.449 
				112.184,392.449 123.797,404.233 125.277,404.233 113.021,391.797 113.021,380.036 111.975,380.036 111.975,390.735 
				103.148,381.779 103.148,370.018 102.102,370.018 102.102,380.717 93.275,371.761 93.275,360 92.229,360 92.228,370.699 
				72.043,350.216 70.947,349.856 71.302,350.967 91.392,371.351 81.041,371.351 81.041,372.413 92.438,372.413 101.265,381.369 
				90.914,381.369 			"/>
		</g>
		<g>
			<g>
				<path style="fill:#198477;" d="M121.787,404.233h8.611l5.742-6.541c11.376-12.958,13.748-31.672,5.974-47.129l-16.021-31.855
					l-16.022,31.855c-7.774,15.457-5.402,34.171,5.974,47.129L121.787,404.233z"/>
			</g>
			<g>
				<path style="fill:#38A59D;" d="M121.787,404.233h4.305v-85.524l-16.022,31.855c-7.774,15.457-5.402,34.171,5.974,47.129
					L121.787,404.233z"/>
			</g>
			<polygon style="fill:#5FDDD1;" points="117.314,375.55 116.486,376.39 125.507,385.544 125.507,404.233 126.678,404.233 
				126.678,385.699 135.853,376.39 135.025,375.55 126.678,384.018 126.678,369.84 135.853,360.53 135.025,359.69 126.678,368.158 
				126.678,353.98 135.853,344.671 135.025,343.83 126.678,352.299 126.678,319.873 126.093,318.708 125.507,319.873 
				125.507,352.143 117.314,343.83 116.486,344.671 125.507,353.824 125.507,368.003 117.314,359.69 116.486,360.53 
				125.507,369.684 125.507,383.863 			"/>
		</g>
	</g>
	<g>
		<g>
			<path style="fill:#555682;" d="M182.897,96.685l-0.911,0.222c-0.873,0.212-1.749,0.399-2.629,0.559
				c-1.892,0.347-3.8,0.574-5.715,0.678c-4.804,0.27-9.637-0.218-14.323-1.458l1.814-12.27h19.947L182.897,96.685z"/>
		</g>
		<polygon style="fill:#46446B;" points="171.107,77.738 148.497,83.924 171.107,90.258 193.717,83.924 		"/>
		<polygon style="fill:#696B93;" points="148.497,83.924 148.497,84.31 171.107,90.643 171.107,90.258 		"/>
		<polygon style="fill:#2D2F2E;" points="193.717,84.31 193.717,83.924 171.107,90.258 171.107,90.643 		"/>
		<g>
			<path style="fill:#EF487C;" d="M194.07,94.729c-0.093,0-0.169-0.076-0.169-0.169v-9.844c0-0.343-0.279-0.622-0.622-0.622h-22.172
				c-0.093,0-0.169-0.076-0.169-0.169c0-0.093,0.076-0.169,0.169-0.169h22.172c0.529,0,0.96,0.431,0.96,0.96v9.844
				C194.239,94.653,194.164,94.729,194.07,94.729z"/>
			<g>
				<rect x="193.563" y="89.783" style="fill:#EF487C;" width="0.968" height="1.72"/>
				<path style="fill:#EF487C;" d="M194.89,89.112c0,0.466-0.378,0.844-0.844,0.844c-0.466,0-0.844-0.378-0.844-0.844
					c0-0.466,0.378-0.844,0.844-0.844C194.513,88.268,194.89,88.646,194.89,89.112z"/>
			</g>
			<path style="fill:#EF487C;" d="M193.563,94.735c-0.016,0-0.032-0.002-0.048-0.007c-0.089-0.026-0.141-0.12-0.114-0.209
				c0.002-0.006,0.183-0.644-0.003-1.448c-0.212-0.918,0.201-1.624,0.218-1.653c0.048-0.08,0.151-0.106,0.231-0.059
				c0.08,0.048,0.107,0.151,0.059,0.231c-0.004,0.006-0.36,0.624-0.18,1.405c0.206,0.895,0.006,1.591-0.003,1.62
				C193.703,94.687,193.635,94.735,193.563,94.735z"/>
			<path style="fill:#EF487C;" d="M194.463,94.737c-0.091,0-0.166-0.072-0.168-0.163c-0.002-0.045-0.034-1.114,0.068-1.897
				c0.091-0.7-0.132-1.082-0.134-1.086c-0.048-0.079-0.022-0.183,0.057-0.231c0.079-0.048,0.182-0.024,0.231,0.055
				c0.012,0.019,0.289,0.478,0.181,1.306c-0.098,0.756-0.066,1.832-0.065,1.842c0.003,0.093-0.07,0.171-0.163,0.174
				C194.467,94.737,194.465,94.737,194.463,94.737z"/>
			<path style="fill:#EF487C;" d="M193.222,94.73c-0.003,0-0.007,0-0.01,0c-0.093-0.006-0.164-0.085-0.159-0.179
				c0.001-0.016,0.093-1.6,0.013-2.104c-0.1-0.631,0.575-1.068,0.604-1.086c0.078-0.05,0.182-0.027,0.233,0.051
				c0.05,0.078,0.027,0.183-0.051,0.233c-0.005,0.003-0.517,0.338-0.452,0.749c0.085,0.54-0.005,2.11-0.009,2.177
				C193.385,94.661,193.311,94.73,193.222,94.73z"/>
			<path style="fill:#EF487C;" d="M194.658,94.736c-0.091,0-0.166-0.072-0.169-0.163c0-0.014-0.009-0.348,0.105-1.554
				c0.102-1.081-0.18-1.394-0.183-1.397c-0.063-0.066-0.063-0.172,0.001-0.237c0.064-0.064,0.166-0.069,0.233-0.006
				c0.042,0.039,0.404,0.416,0.285,1.672c-0.111,1.174-0.104,1.509-0.104,1.512c0.002,0.093-0.071,0.171-0.164,0.173
				C194.661,94.736,194.66,94.736,194.658,94.736z"/>
			<g>
				<path style="fill:#555682;" d="M172.628,83.924c0,0.234-0.681,0.424-1.521,0.424c-0.84,0-1.521-0.19-1.521-0.424
					c0-0.234,0.681-0.424,1.521-0.424C171.948,83.5,172.628,83.69,172.628,83.924z"/>
				<path style="fill:#696B93;" d="M172.125,83.924c0,0.157-0.456,0.284-1.018,0.284c-0.562,0-1.018-0.127-1.018-0.284
					c0-0.157,0.456-0.284,1.018-0.284C171.67,83.641,172.125,83.768,172.125,83.924z"/>
			</g>
		</g>
	</g>
	<g>
		<g>
			<path style="fill:#555682;" d="M334.093,208.752l0.911,0.222c0.873,0.212,1.749,0.399,2.629,0.559
				c1.892,0.347,3.8,0.574,5.715,0.678c4.804,0.27,9.637-0.218,14.323-1.458l-1.814-12.27h-19.948L334.093,208.752z"/>
		</g>
		<polygon style="fill:#46446B;" points="345.882,189.805 368.492,195.991 345.882,202.325 323.272,195.991 		"/>
		<polygon style="fill:#696B93;" points="368.492,195.991 368.492,196.376 345.882,202.71 345.882,202.325 		"/>
		<polygon style="fill:#2D2F2E;" points="323.272,196.376 323.272,195.991 345.882,202.325 345.882,202.71 		"/>
		<g>
			<path style="fill:#EF487C;" d="M322.919,206.796c0.093,0,0.169-0.076,0.169-0.169v-9.844c0-0.343,0.279-0.622,0.622-0.622h22.172
				c0.093,0,0.169-0.075,0.169-0.169c0-0.093-0.076-0.169-0.169-0.169H323.71c-0.529,0-0.96,0.431-0.96,0.96v9.844
				C322.75,206.72,322.826,206.796,322.919,206.796z"/>
			<g>
				
					<rect x="322.459" y="201.85" transform="matrix(-1 -1.224647e-16 1.224647e-16 -1 645.886 405.4189)" style="fill:#EF487C;" width="0.968" height="1.72"/>
				<path style="fill:#EF487C;" d="M322.099,201.178c0,0.466,0.378,0.844,0.844,0.844s0.844-0.378,0.844-0.844
					c0-0.466-0.378-0.844-0.844-0.844S322.099,200.712,322.099,201.178z"/>
			</g>
			<path style="fill:#EF487C;" d="M323.427,206.801c0.016,0,0.032-0.002,0.048-0.007c0.089-0.026,0.141-0.12,0.114-0.209
				c-0.002-0.006-0.183-0.644,0.003-1.448c0.212-0.918-0.201-1.624-0.218-1.653c-0.048-0.08-0.151-0.106-0.231-0.059
				c-0.08,0.048-0.107,0.151-0.059,0.231c0.004,0.006,0.36,0.624,0.18,1.405c-0.207,0.895-0.006,1.591,0.003,1.62
				C323.287,206.754,323.354,206.801,323.427,206.801z"/>
			<path style="fill:#EF487C;" d="M322.526,206.803c0.091,0,0.166-0.072,0.168-0.163c0.002-0.045,0.034-1.114-0.068-1.897
				c-0.091-0.7,0.132-1.082,0.134-1.086c0.048-0.08,0.023-0.183-0.057-0.232c-0.079-0.048-0.182-0.024-0.231,0.055
				c-0.012,0.019-0.289,0.478-0.181,1.306c0.098,0.756,0.066,1.831,0.065,1.842c-0.003,0.093,0.07,0.171,0.163,0.174
				C322.522,206.803,322.524,206.803,322.526,206.803z"/>
			<path style="fill:#EF487C;" d="M323.767,206.796c0.003,0,0.007,0,0.01,0c0.093-0.006,0.164-0.085,0.159-0.178
				c-0.001-0.016-0.093-1.6-0.013-2.105c0.099-0.631-0.576-1.068-0.604-1.086c-0.078-0.05-0.182-0.027-0.233,0.052
				c-0.05,0.079-0.027,0.183,0.051,0.233c0.005,0.003,0.517,0.338,0.453,0.749c-0.085,0.54,0.005,2.11,0.009,2.177
				C323.604,206.727,323.678,206.796,323.767,206.796z"/>
			<path style="fill:#EF487C;" d="M322.332,206.803c0.091,0,0.166-0.072,0.169-0.163c0-0.014,0.009-0.347-0.105-1.553
				c-0.102-1.081,0.18-1.394,0.183-1.397c0.063-0.066,0.063-0.172-0.001-0.237c-0.064-0.064-0.166-0.069-0.233-0.007
				c-0.042,0.039-0.404,0.416-0.285,1.672c0.111,1.174,0.104,1.509,0.104,1.512c-0.002,0.093,0.071,0.171,0.164,0.173
				C322.328,206.803,322.33,206.803,322.332,206.803z"/>
			<g>
				<path style="fill:#555682;" d="M344.361,195.991c0,0.234,0.681,0.424,1.521,0.424c0.84,0,1.521-0.19,1.521-0.424
					c0-0.234-0.681-0.424-1.521-0.424C345.042,195.567,344.361,195.757,344.361,195.991z"/>
				<path style="fill:#696B93;" d="M344.864,195.991c0,0.157,0.456,0.284,1.018,0.284c0.562,0,1.018-0.127,1.018-0.284
					c0-0.157-0.456-0.284-1.018-0.284C345.32,195.707,344.864,195.834,344.864,195.991z"/>
			</g>
		</g>
	</g>
	<g>
		<g>
			<g>
				<g>
					<path style="fill:#46446B;" d="M289.304,166.095l-1.971,21.416c-0.823,7.304-7,12.825-14.35,12.825l0,0
						c-7.35,0-13.528-5.521-14.351-12.825l-1.971-21.416H289.304z"/>
					<path style="fill:#555682;" d="M293.068,172.462c0,0.53-0.212,1.024-0.565,1.369c-0.353,0.353-0.839,0.574-1.378,0.574h-36.283
						c-1.077,0-1.951-0.874-1.951-1.943c0-0.538,0.221-1.024,0.574-1.378c0.353-0.353,0.839-0.574,1.377-0.574h36.283
						C292.202,170.511,293.068,171.385,293.068,172.462z"/>
					<path style="fill:#555682;" d="M291.214,177.327c0,0.539-0.221,1.015-0.574,1.369c-0.353,0.353-0.839,0.574-1.378,0.574
						h-32.566c-1.077,0-1.943-0.874-1.943-1.943c0-0.539,0.221-1.024,0.565-1.378c0.353-0.353,0.839-0.574,1.378-0.574h32.566
						C290.339,175.376,291.214,176.25,291.214,177.327z"/>
					<path style="fill:#555682;" d="M290.392,182.06c0,0.539-0.221,1.024-0.574,1.378c-0.353,0.353-0.839,0.574-1.377,0.574h-30.914
						c-1.077,0-1.951-0.874-1.951-1.951c0-0.539,0.221-1.024,0.574-1.377c0.353-0.344,0.839-0.565,1.377-0.565h30.914
						C289.518,180.118,290.392,180.983,290.392,182.06z"/>
					<path style="fill:#555682;" d="M289.306,186.811c0,0.539-0.221,1.024-0.574,1.378c-0.353,0.353-0.839,0.574-1.378,0.574
						h-28.742c-1.077,0-1.952-0.874-1.952-1.951c0-0.539,0.221-1.015,0.574-1.369c0.353-0.353,0.839-0.574,1.378-0.574h28.742
						C288.432,184.868,289.306,185.742,289.306,186.811z"/>
				</g>
				<path style="opacity:0.2;fill:#1B6D96;" d="M291.125,174.405c0.539,0,1.024-0.221,1.378-0.574
					c0.353-0.344,0.565-0.839,0.565-1.369c0-1.077-0.866-1.951-1.943-1.951H288.9l0.406-4.415h-5.413l-1.969,21.413
					c-0.715,6.393-5.528,11.408-11.638,12.583c0.874,0.159,1.775,0.247,2.693,0.247c6.928,0,12.803-4.898,14.156-11.576h0.219
					c0.539,0,1.024-0.221,1.378-0.574c0.353-0.353,0.574-0.839,0.574-1.378c0-0.993-0.757-1.808-1.728-1.92l0.081-0.879h0.782
					c0.539,0,1.024-0.221,1.377-0.574c0.353-0.353,0.574-0.839,0.574-1.378c0-1.077-0.874-1.943-1.951-1.943h-0.424l0.078-0.848
					h1.167c0.539,0,1.024-0.221,1.378-0.574c0.353-0.353,0.574-0.83,0.574-1.369c0-1.077-0.874-1.951-1.952-1.951h-0.809
					l0.089-0.971H291.125z"/>
			</g>
			<path style="fill:#FFD22E;" d="M305.436,129.898c0-18.674-15.773-33.665-34.723-32.376
				c-16.008,1.088-28.985,14.047-30.103,30.053c-0.42,6.014,0.806,11.706,3.266,16.678c1.701,3.437,4.209,9.163,5.424,12.8
				l1.485,7.977c1.094,3.274,4.159,5.481,7.61,5.481h29.176c3.452,0,6.516-2.207,7.61-5.481l0.966-6.423
				c1.695-5.072,3.855-9.966,6.155-14.795C304.31,139.595,305.436,134.879,305.436,129.898z"/>
			<g>
				<path style="fill:#46446B;" d="M270.152,170.555l-1.592-21.709h-4.458c-2.631,0-4.773-2.141-4.773-4.772
					c0-2.632,2.141-4.773,4.773-4.773h0.531c2.487,0,4.578,1.943,4.759,4.424l0.288,3.918h4.963v1.204h-4.874l1.585,21.621
					L270.152,170.555z M264.102,140.504c-1.968,0-3.568,1.601-3.568,3.569c0,1.968,1.601,3.568,3.568,3.568h4.37l-0.28-3.829
					c-0.136-1.855-1.699-3.308-3.559-3.308H264.102z"/>
				<path style="fill:#46446B;" d="M275.812,170.555l-1.201-0.088l1.585-21.621h-4.874v-1.204h4.962l0.288-3.918
					c0.181-2.48,2.272-4.424,4.76-4.424h0.53c2.631,0,4.773,2.141,4.773,4.773c0,2.631-2.141,4.772-4.773,4.772h-4.458
					L275.812,170.555z M277.493,147.641h4.37c1.968,0,3.568-1.601,3.568-3.568c0-1.968-1.601-3.569-3.568-3.569h-0.53
					c-1.86,0-3.423,1.453-3.559,3.308L277.493,147.641z"/>
			</g>
		</g>
		<path style="fill:#FFD22E;" d="M272.982,67.598c-1.245,0-2.254,1.009-2.254,2.254v19.397c0,1.245,1.009,2.254,2.254,2.254
			c1.245,0,2.254-1.009,2.254-2.254V69.852C275.236,68.607,274.227,67.598,272.982,67.598z"/>
		<path style="fill:#FFD22E;" d="M317.422,86.006c-0.88-0.88-2.307-0.88-3.187,0l-13.716,13.716c-0.88,0.88-0.88,2.307,0,3.187
			c0.88,0.88,2.307,0.88,3.188,0l13.716-13.716C318.303,88.313,318.303,86.886,317.422,86.006z"/>
		<path style="fill:#FFD22E;" d="M335.83,130.446c0-1.245-1.009-2.254-2.254-2.254h-19.397c-1.245,0-2.254,1.009-2.254,2.254
			c0,1.245,1.009,2.254,2.254,2.254h19.397C334.821,132.7,335.83,131.691,335.83,130.446z"/>
		<path style="fill:#FFD22E;" d="M234.039,130.446c0-1.245-1.009-2.254-2.254-2.254h-19.397c-1.245,0-2.254,1.009-2.254,2.254
			c0,1.245,1.009,2.254,2.254,2.254h19.397C233.03,132.7,234.039,131.691,234.039,130.446z"/>
		<path style="fill:#FFD22E;" d="M245.445,102.909c0.88-0.88,0.88-2.307,0-3.187L231.73,86.006c-0.88-0.88-2.307-0.88-3.187,0
			c-0.88,0.88-0.88,2.307,0,3.187l13.716,13.716C243.138,103.789,244.565,103.789,245.445,102.909z"/>
	</g>
</g>
<g id="DESIGNED_BY_FREEPIK">
	<g id="XMLID_2_">
		<g id="XMLID_81_">
			<g id="XMLID_338_">
				<path id="XMLID_346_" style="fill:#1D262D;" d="M260.104,467.052c-0.432,0.443-0.803,0.931-1.108,1.453l-0.465-0.241
					c-0.067-0.298-0.349-0.503-0.659-0.466c-0.331,0.039-0.568,0.339-0.529,0.67c0.039,0.331,0.339,0.568,0.67,0.529
					c0.066-0.008,0.127-0.026,0.184-0.052l0.452,0.234c-0.251,0.554-0.433,1.139-0.539,1.744l0.747,0.132
					c0.23-1.306,0.85-2.507,1.792-3.472L260.104,467.052z"/>
				<path id="XMLID_345_" style="fill:#1D262D;" d="M265.592,464.75c-0.171,0-0.341,0.006-0.51,0.017l-0.074-0.626
					c0.188-0.149,0.296-0.389,0.266-0.645c-0.046-0.393-0.402-0.674-0.795-0.628c-0.393,0.046-0.674,0.402-0.628,0.795
					c0.03,0.254,0.189,0.461,0.405,0.564l0.074,0.624c-0.714,0.116-1.403,0.332-2.06,0.646l0.327,0.684
					c0.934-0.447,1.942-0.673,2.995-0.673c0.496,0,0.993,0.053,1.475,0.158l0.161-0.741
					C266.692,464.809,266.142,464.75,265.592,464.75z"/>
				<path id="XMLID_344_" style="fill:#1D262D;" d="M272.194,467.297c0.331-0.04,0.566-0.341,0.526-0.672
					c-0.04-0.331-0.341-0.566-0.672-0.526c-0.309,0.038-0.535,0.304-0.53,0.609l-0.416,0.363c-0.418-0.43-0.889-0.813-1.408-1.139
					l-0.404,0.641c1.134,0.715,2.021,1.726,2.563,2.925l0.691-0.313c-0.251-0.554-0.568-1.072-0.942-1.545l0.402-0.351
					C272.065,467.302,272.129,467.306,272.194,467.297z"/>
				<path id="XMLID_343_" style="fill:#1D262D;" d="M265.044,474.959c-0.386,0.023-0.775,0.035-1.157,0.035
					c-0.88,0-1.733-0.061-2.478-0.179c-0.39-0.062-0.846-0.155-1.27-0.292c1.046,1.861,3.069,3.125,5.388,3.125
					c2.855,0,5.262-1.916,5.95-4.504c-0.682,0.449-1.505,0.825-2.459,1.123C267.839,474.634,266.463,474.873,265.044,474.959z"/>
				<path id="XMLID_339_" style="fill:#1D262D;" d="M265.592,466.266c-3.352,0-6.08,2.666-6.08,5.944
					c0,0.425,0.046,0.849,0.137,1.261c0.673,0.483,2.706,0.89,5.348,0.731c2.879-0.173,5.297-0.957,6.672-2.158
					c-0.006-0.195-0.021-0.39-0.045-0.582C271.244,468.5,268.65,466.266,265.592,466.266z M263.432,472.781
					c-1.02,0-1.85-0.83-1.85-1.85c0-1.02,0.83-1.85,1.85-1.85c1.02,0,1.85,0.83,1.85,1.85
					C265.282,471.951,264.452,472.781,263.432,472.781z M268.17,471.873c-0.75,0-1.36-0.61-1.36-1.36s0.61-1.361,1.36-1.361
					c0.75,0,1.361,0.61,1.361,1.361S268.92,471.873,268.17,471.873z"/>
			</g>
			<path id="XMLID_87_" style="fill:#1D262D;" d="M281.595,468.134c-0.295-0.116-0.805-0.309-1.382-0.237
				c-0.551,0.068-0.844,0.34-0.844,1.007v0.866h2.228v1.717h-2.228v5.455h-1.932v-5.455h-1.34v-1.717h1.34v-0.888
				c0-1.68,0.896-2.783,2.568-2.783c0.643,0,1.157,0.122,1.59,0.308L281.595,468.134z"/>
			<path id="XMLID_85_" style="fill:#1D262D;" d="M286.298,471.466c-0.177-0.03-0.358-0.046-0.526-0.046
				c-0.896,0-1.51,0.548-1.51,1.613v3.908h-1.932v-7.172h1.873v0.785c0.451-0.674,1.14-0.977,2.021-0.977
				c0.414,0,0.848,0.128,1.094,0.337L286.298,471.466z"/>
			<path id="XMLID_331_" style="fill:#1D262D;" d="M293.965,473.344c0,0.222-0.015,0.489-0.037,0.651h-5.085
				c0.207,1.036,0.933,1.488,1.843,1.488c0.622,0,1.295-0.252,1.813-0.688l1.133,1.243c-0.814,0.748-1.85,1.088-3.057,1.088
				c-2.198,0-3.723-1.495-3.723-3.753c0-2.257,1.48-3.797,3.627-3.797C292.544,469.576,293.958,471.108,293.965,473.344z
				 M288.851,472.678h3.175c-0.177-0.918-0.733-1.436-1.562-1.436C289.554,471.242,289.021,471.789,288.851,472.678z"/>
			<path id="XMLID_328_" style="fill:#1D262D;" d="M301.618,473.344c0,0.222-0.015,0.489-0.037,0.651h-5.085
				c0.207,1.036,0.933,1.488,1.843,1.488c0.622,0,1.295-0.252,1.813-0.688l1.132,1.243c-0.814,0.748-1.85,1.088-3.057,1.088
				c-2.198,0-3.723-1.495-3.723-3.753c0-2.257,1.48-3.797,3.627-3.797C300.197,469.576,301.611,471.108,301.618,473.344z
				 M296.504,472.678h3.175c-0.178-0.918-0.733-1.436-1.562-1.436C297.207,471.242,296.674,471.789,296.504,472.678z"/>
			<path id="XMLID_325_" style="fill:#1D262D;" d="M309.964,473.351c0,2.154-1.495,3.775-3.471,3.775
				c-0.962,0-1.643-0.378-2.109-0.933v3.708h-1.924v-10.133h1.887v0.792c0.466-0.585,1.155-0.984,2.139-0.984
				C308.469,469.576,309.964,471.197,309.964,473.351z M304.287,473.351c0,1.132,0.747,1.976,1.843,1.976
				c1.14,0,1.85-0.881,1.85-1.976c0-1.095-0.71-1.976-1.85-1.976C305.035,471.375,304.287,472.219,304.287,473.351z"/>
			<path id="XMLID_83_" style="fill:#1D262D;" d="M313.068,467.423c0,0.696-0.54,1.229-1.236,1.229
				c-0.696,0-1.229-0.533-1.229-1.229c0-0.696,0.533-1.243,1.229-1.243C312.527,466.179,313.068,466.727,313.068,467.423z
				 M312.809,476.941h-1.932v-7.172h1.932V476.941z"/>
			<path id="XMLID_82_" style="fill:#1D262D;" d="M316.032,472.322l2.701-2.554h2.368l-3.479,3.375l3.501,3.797h-2.376l-2.716-2.901
				v2.901H314.1v-10.658h1.932V472.322z"/>
		</g>
		<g id="XMLID_3_">
			<path id="XMLID_264_" style="fill:#1D262D;" d="M184.412,476.876v-1.055c-0.527,0.718-1.391,1.23-2.387,1.23
				c-1.846,0-3.149-1.406-3.149-3.706c0-2.256,1.289-3.721,3.149-3.721c0.952,0,1.816,0.469,2.387,1.245v-3.765h1.099v9.77H184.412z
				 M184.412,474.957v-3.208c-0.395-0.615-1.245-1.143-2.124-1.143c-1.421,0-2.27,1.172-2.27,2.739c0,1.567,0.85,2.724,2.27,2.724
				C183.167,476.07,184.017,475.572,184.412,474.957z"/>
			<path id="XMLID_261_" style="fill:#1D262D;" d="M186.932,473.331c0-2.051,1.465-3.706,3.486-3.706
				c2.139,0,3.398,1.67,3.398,3.794v0.279h-5.727c0.088,1.333,1.025,2.446,2.549,2.446c0.805,0,1.626-0.322,2.182-0.893l0.527,0.718
				c-0.703,0.703-1.655,1.084-2.812,1.084C188.44,477.052,186.932,475.543,186.932,473.331z M190.403,470.533
				c-1.509,0-2.256,1.274-2.314,2.358h4.643C192.718,471.837,192.014,470.533,190.403,470.533z"/>
			<path id="XMLID_259_" style="fill:#1D262D;" d="M194.607,475.938l0.571-0.791c0.469,0.542,1.362,1.011,2.329,1.011
				c1.084,0,1.67-0.513,1.67-1.216c0-1.714-4.38-0.659-4.38-3.281c0-1.098,0.952-2.036,2.636-2.036c1.201,0,2.051,0.454,2.622,1.026
				l-0.513,0.762c-0.424-0.513-1.201-0.894-2.109-0.894c-0.967,0-1.567,0.483-1.567,1.113c0,1.552,4.38,0.527,4.38,3.281
				c0,1.187-0.952,2.139-2.783,2.139C196.306,477.052,195.324,476.7,194.607,475.938z"/>
			<path id="XMLID_256_" style="fill:#1D262D;" d="M201.477,468.058c0-0.41,0.337-0.747,0.732-0.747c0.41,0,0.747,0.337,0.747,0.747
				c0,0.41-0.337,0.732-0.747,0.732C201.814,468.79,201.477,468.468,201.477,468.058z M201.667,476.876v-7.075h1.099v7.075H201.667z
				"/>
			<path id="XMLID_252_" style="fill:#1D262D;" d="M204.582,478.692l0.556-0.82c0.586,0.703,1.289,0.967,2.3,0.967
				c1.172,0,2.27-0.571,2.27-2.124v-1.011c-0.513,0.718-1.377,1.26-2.373,1.26c-1.845,0-3.149-1.377-3.149-3.662
				c0-2.27,1.289-3.677,3.149-3.677c0.952,0,1.802,0.469,2.373,1.245v-1.069h1.098v6.87c0,2.344-1.641,3.076-3.369,3.076
				C206.237,479.747,205.417,479.512,204.582,478.692z M209.709,474.84v-3.091c-0.381-0.615-1.23-1.143-2.109-1.143
				c-1.421,0-2.27,1.128-2.27,2.695c0,1.553,0.849,2.695,2.27,2.695C208.478,475.997,209.328,475.455,209.709,474.84z"/>
			<path id="XMLID_78_" style="fill:#1D262D;" d="M217.413,476.876v-4.629c0-1.245-0.63-1.641-1.582-1.641
				c-0.865,0-1.685,0.527-2.095,1.099v5.17h-1.099v-7.075h1.099v1.025c0.498-0.586,1.465-1.201,2.519-1.201
				c1.48,0,2.256,0.747,2.256,2.285v4.966H217.413z"/>
			<path id="XMLID_69_" style="fill:#1D262D;" d="M219.932,473.331c0-2.051,1.465-3.706,3.486-3.706c2.138,0,3.398,1.67,3.398,3.794
				v0.279h-5.727c0.088,1.333,1.025,2.446,2.549,2.446c0.806,0,1.626-0.322,2.183-0.893l0.527,0.718
				c-0.703,0.703-1.655,1.084-2.812,1.084C221.441,477.052,219.932,475.543,219.932,473.331z M223.404,470.533
				c-1.509,0-2.256,1.274-2.314,2.358h4.643C225.718,471.837,225.015,470.533,223.404,470.533z"/>
			<path id="XMLID_56_" style="fill:#1D262D;" d="M233.35,476.876v-1.055c-0.527,0.718-1.392,1.23-2.388,1.23
				c-1.845,0-3.149-1.406-3.149-3.706c0-2.256,1.289-3.721,3.149-3.721c0.952,0,1.817,0.469,2.388,1.245v-3.765h1.098v9.77H233.35z
				 M233.35,474.957v-3.208c-0.396-0.615-1.245-1.143-2.124-1.143c-1.421,0-2.27,1.172-2.27,2.739c0,1.567,0.849,2.724,2.27,2.724
				C232.105,476.07,232.954,475.572,233.35,474.957z"/>
			<path id="XMLID_221_" style="fill:#1D262D;" d="M239.692,476.876v-9.77h1.098v3.765c0.572-0.776,1.421-1.245,2.388-1.245
				c1.845,0,3.149,1.465,3.149,3.721c0,2.299-1.304,3.706-3.149,3.706c-0.996,0-1.86-0.513-2.388-1.23v1.055H239.692z M242.9,476.07
				c1.436,0,2.286-1.157,2.286-2.724c0-1.568-0.85-2.739-2.286-2.739c-0.864,0-1.728,0.527-2.109,1.143v3.208
				C241.171,475.572,242.036,476.07,242.9,476.07z"/>
			<path id="XMLID_24_" style="fill:#1D262D;" d="M247.528,478.648c0.161,0.073,0.425,0.117,0.601,0.117
				c0.483,0,0.806-0.161,1.055-0.747l0.469-1.069l-2.959-7.148h1.187l2.358,5.801l2.344-5.801h1.201l-3.545,8.51
				c-0.425,1.025-1.143,1.421-2.08,1.435c-0.234,0-0.601-0.044-0.806-0.103L247.528,478.648z"/>
		</g>
	</g>
</g>
</svg>
