<?xml version="1.0" encoding="utf-8"?>
<!-- Generator: Adobe Illustrator 27.5.0, SVG Export Plug-In . SVG Version: 6.00 Build 0)  -->
<svg version="1.1" id="Layer_1" xmlns="http://www.w3.org/2000/svg" xmlns:xlink="http://www.w3.org/1999/xlink" x="0px" y="0px"
	 viewBox="0 0 2352.252 2000" style="enable-background:new 0 0 2352.252 2000;" xml:space="preserve">
<g>
	<rect y="0" style="fill:#FFFFFF;" width="2352.252" height="2000"/>
	<g>
		<g>
			<path style="fill:#96D9C9;" d="M1407.124,867.185l25.584-24.759c-8.005-44.765-50.002-66.312-77.658-69.247
				c-74.474-7.904-112.435,43.298-128.412,125.42c-29.162,149.892,7.553,779.283,7.553,779.283
				c2.745-16.715,205.015-648.767,199.829-822.421L1407.124,867.185z"/>
			<path style="fill:#3C8F7C;" d="M456.074,1412.525l-2.753,20.368l-6.592-23.559c-18.528-5.836-34.622-7.835-47.376-4.937
				c-113.982,25.905,82.982,182.66,82.982,182.66s-62.773-39.406-123.566-64.36l-0.772,20.647l-7.776-23.331
				c-47.238-18.492-91.064-27.038-99.821-0.339c-8.245,25.135,8.347,48.932,36.897,70.117l32.818,1.151l-19.345,8.112
				c65.933,42.232,175.003,72.441,212.651,79.312c-36.014-5.658-124.059-17.116-176.238-5.853l8.188,13.625l-20.604-10.302
				c-18.263,5.891-29.606,15.644-28.385,31.001c2.335,29.363,129.741,39.937,129.741,39.937l465.425-4.318l2.591,1.295
				C894.137,1743.752,606.117,1467.488,456.074,1412.525z"/>
			<path style="fill:#50BFA5;" d="M2072.324,1674.599c-10.351-48.055-115.431-62.18-249.376-35.838
				c47.694-16.298,113.219-53.393,147.152-70.347l-23.209-14.77l46.617,2.169c38.126-22.321,57.189-44.249,44.736-64.081
				c-9.302-14.815-29.711-20.975-57.372-20.903l-14.569,26.071l3.024-25.708c-69.774,4.029-85.602-7.361-179.727,30.686
				c58.818-30.534,67.318-40.006,71.179-52.264l-31.857-13.937h37.329c30.175-32.461,78.047-96.677,58.193-126.274
				c-16.385-24.424-88.32,9.477-134.233,27.091l-19.526,43.933l3.953-37.539c-145.98,63.591-96.499,12.571-96.499,12.571
				s152.386-315.237,62.614-308.15c-35.441,2.797-73.552,24.157-110.979,58.38l-0.948,31.335l-11.136-19.884
				c-27.263,26.722-54.258,59.09-80.027,93.831c34.941-73.385,61.442-145.468,64.075-199.135l-26.67-3.233l26.319-18.308
				c-2.477-27.115-13.217-47.622-34.976-58.463c-33.377-16.627-68.406,8.531-102.892,58.526l8.514,45.124l-21.393-25.282
				c-123.488,201.258-236.401,696.745-236.401,696.745l-8.957,26.873l362.791,17.915
				C1568.07,1751.732,2093.23,1771.662,2072.324,1674.599z"/>
			<g>
				<path style="fill:#184655;" d="M2117.273,1754.115H234.979c-3.129,0-5.665-2.691-5.665-6.011s2.536-6.011,5.665-6.011h1882.293
					c3.128,0,5.665,2.691,5.665,6.011S2120.401,1754.115,2117.273,1754.115z"/>
			</g>
			<path style="fill:#86B1F2;" d="M1538.802,1540.635H687.927c-32.499,0-58.845-23.903-58.845-53.389v-31.745
				c0-29.486,26.346-53.389,58.845-53.389h850.875l0,0c-38.922,38.598-39.596,97.585-1.563,136.906L1538.802,1540.635z"/>
			<path style="fill:#FAE0B2;" d="M1526.882,1417.985h-428.176c-29.486,0-53.389,23.903-53.389,53.389l0,0
				c0,29.486,23.903,53.389,53.389,53.389h428.212C1506.911,1492.01,1506.95,1450.651,1526.882,1417.985z"/>
			<g>
				<path style="fill:#355389;" d="M1500.486,1250.682c1.865-3.205-0.968-6.908-5.275-6.908H817.584
					c-53.112,0-96.168,35.53-96.168,79.362l0,0c0,43.829,43.056,79.36,96.168,79.36h677.815c4.327,0,7.165-3.731,5.284-6.946l0,0
					C1473.848,1349.678,1473.917,1296.35,1500.486,1250.682z"/>
				<path style="fill:#FAE0B2;" d="M1495.086,1260.852h-454.65c-33.584,0-60.809,27.226-60.809,60.809v4.562
					c0,33.585,27.225,60.81,60.809,60.81h455.619C1475.685,1346.595,1475.46,1301.273,1495.086,1260.852z"/>
			</g>
			<path style="fill:#FAE0B2;" d="M675.807,1236.723h437.309c38.78,0,70.217-33.901,70.217-75.719l0,0
				c0-41.819-31.437-75.719-70.217-75.719H675.807l0,0c33.425,41.975,34.731,103.555,3.121,147.135L675.807,1236.723z"/>
			<path style="fill:#466EB6;" d="M1177.572,1161.004v-0.001c0-41.818-31.799-75.718-71.025-75.718H667.853
				c-2.047,0-3.7-1.78-3.68-3.962l0,0c0.019-2.152,1.661-3.885,3.68-3.885h695.928c43.291,0,78.384,37.413,78.384,83.565v0.001
				c0,46.152-35.094,83.565-78.384,83.565H667.855c-2.019,0-3.662-1.734-3.68-3.887l0,0c-0.018-2.181,1.634-3.959,3.68-3.959
				h438.692C1145.773,1236.723,1177.572,1202.822,1177.572,1161.004z"/>
			<g>
				<path style="fill:#FF4C16;" d="M1208.569,1324.441h-46.798c-10.064,0-18.223,3.121-18.223,6.972v0.625h65.021V1324.441z"/>
				<path style="fill:#F47458;" d="M1248.488,1341.924c0-9.656-12.223-17.483-27.299-17.483h-60.057
					c11.435,0,20.704,5.936,20.704,13.261l-0.283,187.401l33.183-24.1l33.822,24.1L1248.488,1341.924z"/>
			</g>
			<g>
				<path style="fill:#B75742;" d="M1888.652,1540.352H624.34c-39.261,0-71.089,31.828-71.089,71.088v59.795
					c0,39.26,31.828,71.089,71.089,71.089h1264.312l-0.662-0.689C1833.902,1685.338,1834.194,1596.292,1888.652,1540.352z"/>
				<path style="fill:#FAE0B2;" d="M1866.269,1570.249H1190.39c-39.262,0-71.089,31.827-71.089,71.088v0.001
					c0,39.261,31.827,71.088,71.089,71.088h675.866C1841.411,1668.408,1841.447,1614.233,1866.269,1570.249z"/>
			</g>
			<g>
				<path style="fill:#13375B;" d="M1534.413,1641.706h-54.811c-11.787,0-21.344,9.555-21.344,21.343v1.91h76.155V1641.706z"/>
				<path style="fill:#355389;" d="M1481.843,1641.785c13.101-0.006,32.666,11.08,43.701,24.765l130.005,161.234l76.362-0.045
					l-123.643-153.342c-14.549-18.043-40.345-32.662-57.618-32.652L1481.843,1641.785z"/>
			</g>
			<g>
				<path style="fill:#F7CC7F;" d="M564.992,1121.2c-32.398,4.898-42.553,47.203-15.925,66.533
					c4.782,3.472,8.058,8.641,9.405,14.396l4.635,19.801c1.278,5.457,6.533,9.017,12.074,8.18l12.273-1.856
					c5.541-0.837,9.51-5.792,9.117-11.383c-1.434-20.399-3.439-27.817,3.303-36.819C619.595,1153.718,597.397,1116.3,564.992,1121.2
					z"/>
				<g>
					<path style="fill:#FAE0B2;" d="M572.067,1214.641c-0.011,0.001-0.022,0.002-0.033,0.004c-1.631,0.227-3.138-0.91-3.366-2.541
						l-6.038-43.177l-10.113-8.664c-1.25-1.072-1.396-2.954-0.325-4.204c1.07-1.25,2.954-1.395,4.204-0.325l11.826,10.132
						l6.351,45.411C574.8,1212.899,573.68,1214.397,572.067,1214.641z"/>
				</g>
				<g>
					<path style="fill:#FAE0B2;" d="M587.09,1214.212c0.011-0.002,0.022-0.003,0.033-0.005c1.625-0.265,2.728-1.796,2.465-3.422
						l-6.996-43.032l7.1-11.265c0.878-1.394,0.46-3.235-0.933-4.112c-1.392-0.879-3.235-0.46-4.112,0.932l-8.302,13.175
						l7.357,45.259C583.965,1213.357,585.477,1214.455,587.09,1214.212z"/>
				</g>
				<path style="fill:#96D9C9;" d="M558.335,1201.64c0.042,0.163,0.098,0.324,0.137,0.489l4.635,19.801
					c1.277,5.457,6.533,9.017,12.074,8.18l12.273-1.856c5.541-0.837,9.51-5.792,9.117-11.383c-0.638-9.075-1.387-15.577-1.43-20.796
					L558.335,1201.64z"/>
			</g>
			<path style="fill:#F47458;" d="M558.891,805.953l-12.837-18.564l-22.57,0.05c-2.57,0.006-4.032-2.939-2.473-4.982l13.689-17.945
				l-7.022-21.45c-0.8-2.443,1.548-4.744,3.975-3.892l21.297,7.474l18.23-13.307c2.076-1.516,4.989,0.008,4.929,2.577l-0.526,22.564
				l18.289,13.226c2.083,1.506,1.534,4.748-0.929,5.485l-21.622,6.472l-6.927,21.48
				C563.604,807.588,560.353,808.068,558.891,805.953z"/>
			<path style="fill:#9BC1F9;" d="M1747.564,839.594l-9.43-13.637l-16.58,0.036c-1.889,0.005-2.961-2.159-1.816-3.66l10.055-13.182
				l-5.158-15.756c-0.587-1.795,1.138-3.484,2.92-2.858l15.644,5.489l13.391-9.775c1.525-1.113,3.665,0.006,3.621,1.894
				l-0.388,16.575l13.436,9.716c1.529,1.106,1.127,3.487-0.682,4.029l-15.883,4.754l-5.088,15.78
				C1751.026,840.794,1748.636,841.146,1747.564,839.594z"/>
			<polygon style="fill:#F48C7F;" points="1483.286,639.152 1462.44,635.647 1450.227,653.411 1427.137,647.827 1419.963,670.759 
				1393.573,665.597 1384.363,685.898 1358.16,685.083 1358.469,675.166 1378.061,675.775 1387.778,654.353 1413.147,659.315 
				1420.44,635.998 1445.92,642.16 1457.848,624.813 1477.169,628.061 1482.619,615.032 1491.774,618.86 			"/>
			<polygon style="fill:#50BFA5;" points="891.483,703.772 876.217,708.457 865.966,684.727 842.802,688.824 832.227,672.321 
				823.872,677.674 838.016,699.747 859.968,695.864 870.633,720.55 893.603,713.5 			"/>
			<path style="fill:#F48C7F;" d="M441.993,955.155l-22.848,13.901l23.699,106.463c2.048,9.199,12.529,13.663,20.58,8.765l0,0
				c5.071-3.086,7.592-9.076,6.252-14.859l-5.791-24.996l23.974-14.585l19.823,16.589c4.519,3.782,10.945,4.266,15.98,1.203
				l0.434-0.264c8.059-4.902,8.907-16.275,1.665-22.318L441.993,955.155z M457.448,1019.302l-4.378-19.558l15.384,12.862
				L457.448,1019.302z"/>
			<path style="fill:#F7CC7F;" d="M1820.423,1055.888c1.174-3.014,0.767-13.814,15.773-24.197
				c6.168-4.222,11.227-7.815,12.594-12.745c2.361-8.503-6.589-12.586-15.504-12.544c-4.611,0.022-8.381-3.674-8.527-8.285l0,0
				c-0.149-4.684,3.486-8.607,8.166-8.835c5.111-0.25,11.134,0.245,17.453,2c19.137,5.312,24.899,18.31,21.558,30.343
				c-3.058,11.017-11.885,16.374-19.085,20.935c-12.118,7.697-12.112,16.277-13.148,18.679L1820.423,1055.888z M1811.1,1074.847
				c2.134-7.683,9.027-11.703,16.565-9.611c7.829,2.173,11.373,9.091,9.385,16.814c-2.092,7.539-8.881,11.746-16.71,9.572
				C1812.657,1089.49,1809.007,1082.386,1811.1,1074.847z"/>
			<path style="fill:#96D9C9;" d="M709.183,793.804c5.857,0.476,17.315,2.852,27.842,5.86c12.882,3.682,20.421,7.185,26.061,13.142
				c5.52,5.323,8.409,13.041,5.994,21.491c-2.376,8.311-9.44,14.683-21.077,15.552l-0.079,0.277
				c9.835,5.958,15.434,16.248,11.99,28.299c-2.415,8.449-8.194,13.99-15.358,17.036c-8.331,3.463-20.56,3.264-39.122-2.041
				c-10.389-2.969-17.948-5.879-22.46-7.917L709.183,793.804z M719.885,835.519l6.926,1.98c11.081,3.167,18.344,0.298,20.323-6.628
				c2.019-7.064-2.314-12.348-11.872-15.079c-4.57-1.307-7.282-1.782-9.162-2.019L719.885,835.519z M708.048,876.936
				c1.999,0.87,4.492,1.583,8.094,2.613c9.558,2.732,19.037,1.545,21.847-8.289c2.692-9.419-4.688-15.574-15.216-18.583
				l-7.203-2.058L708.048,876.936z"/>
			<path style="fill:#F7CC7F;" d="M1613.227,834.186c1.187,5.194-1.995,10.419-7.176,11.667c-4.835,1.164-10.984,2.078-18.051,2.316
				c-36.795,1.241-56.519-21.018-57.541-51.338c-1.225-36.321,23.992-57.408,56.208-58.495c6.392-0.215,12.02,0.26,16.571,1.051
				c5.476,0.952,9.03,6.305,7.833,11.732l-0.076,0.339c-1.122,5.09-6.047,8.448-11.18,7.531c-3.367-0.601-7.167-0.935-11.374-0.793
				c-19.108,0.644-33.563,12.673-32.765,36.361c0.72,21.319,13.807,34.316,35.283,33.592c3.573-0.12,7.325-0.63,10.771-1.36
				C1606.929,825.686,1612.041,829.004,1613.227,834.186L1613.227,834.186z"/>
			<path style="fill:#466EB6;" d="M419.909,1329.59c-2.566-7.625,1.716-16.189,9.356-18.711c7.95-2.624,15.196,1.274,18.219,9.195
				c2.872,7.973-0.34,15.888-8.621,18.871C430.457,1341.972,422.675,1337.809,419.909,1329.59z M417.31,1306.516l-24.776-59.187
				c-2.05-4.897,0.42-10.513,5.415-12.312l6.034-2.173c4.987-1.796,10.464,0.943,12.016,6.012l18.792,61.365L417.31,1306.516z"/>
			<g>
				<path style="fill:#9BC1F9;" d="M1672.302,409.402h-244.433c-65.496,0-118.593-53.097-118.593-118.593l0,0
					c0-65.498,53.097-118.594,118.593-118.594h244.433c65.496,0,118.594,53.096,118.594,118.594l0,0
					C1790.896,356.306,1737.798,409.402,1672.302,409.402z"/>
				<polygon style="fill:#9BC1F9;" points="1333.62,309.204 1279.62,371.347 1365.62,356.828 				"/>
				<g>
					<path style="fill:#FFFFFF;" d="M1379.021,263.665h351.815c4.639,0,8.399-3.761,8.399-8.399c0-4.638-3.76-8.399-8.399-8.399
						h-351.815c-4.639,0-8.399,3.761-8.399,8.399C1370.621,259.905,1374.381,263.665,1379.021,263.665z"/>
				</g>
				<g>
					<path style="fill:#FFFFFF;" d="M1379.021,326.003h351.815c4.639,0,8.399-3.762,8.399-8.4c0-4.639-3.76-8.399-8.399-8.399
						h-351.815c-4.639,0-8.399,3.76-8.399,8.399C1370.621,322.242,1374.381,326.003,1379.021,326.003z"/>
				</g>
			</g>
			<g>
				<g>
					<path style="fill:#3259A1;" d="M1077.232,491.952c34.451-27.894,124.704,10.667,138.15,28.667
						c13.224,17.702,40.067,204.493,20.31,217.413c-19.757,12.92-80.897,39.081-106.327,16
						C1103.935,730.952,1077.232,491.952,1077.232,491.952z"/>
					<path style="fill:#FFA283;" d="M1046.295,481.92c0,0-58.547-29.922-66.47-44.777c-7.923-14.857-41.049-64.874-41.049-64.874
						s-16.917,2.139-21.389,9.722c5.495,20.614,22.356,77.731,44.143,94.568c21.791,16.837,79.17,51.541,79.17,51.541
						L1046.295,481.92z"/>
					<g>
						<path style="fill:#FFA283;" d="M1034.716,834.328c0,0-1.981,40.605-1.981,65.365s38.132,121.817,34.664,135.681
							c-3.468,13.866,35.934,11.982,35.934,11.982s2.69-75.366-7.461-111.021c-10.151-35.652,0-108.94,0-108.94L1034.716,834.328z"
							/>
						<path style="fill:#FFA283;" d="M1130.365,814.755c0,0,12.796,67.111,23.196,82.462c10.4,15.351,66.356,119.837,66.356,133.207
							c0,13.369,35.16,2.475,35.16,2.475s-29.71-114.389-41.596-149.052c-11.886-34.664-16.341-63.385-16.341-63.385
							L1130.365,814.755z"/>
					</g>
					<path style="fill:#13375B;" d="M1034.22,748.165c-3.639,22.085-18.443,156.224-18.443,156.224s50.489,15.505,80.695,8.573
						c0,0-0.85-107.85,6.086-107.85c0.069,0,0.138,0,0.207,0.001c9.905,0.054,18.611,6.968,21.001,16.58
						c5.782,23.248,21.655,93.348,21.655,93.348s63.816-8.893,77.681-15.33c0,0-21.316-151.737-44.59-175.012l-27.921-25.063
						l-101.771-13.118C1048.82,686.518,1036.796,732.538,1034.22,748.165z"/>
					<path style="fill:#466EB6;" d="M1007.479,1077.962h108.198c0,0,2.231-39.119-5.197-46.547
						c-7.431-7.429-5.449,0.94-17.828,5.668c-12.381,4.729-20.436-6.677-26.093-12.333c-5.659-5.658-1.639,18.053-25.408,18.053
						C1017.384,1042.802,1002.033,1067.067,1007.479,1077.962z"/>
					<path style="fill:#466EB6;" d="M1218.782,1026.115c-5.594,1.286-23.208,15.654-29.05,31.193
						c-5.842,15.54-4.175,21.091-4.175,21.091s17.9,7.96,52.267,5.449c34.366-2.511,29.123-6.281,29.123-6.281
						s-2.454-35.354-8.29-46.102C1252.817,1020.717,1228.584,1023.86,1218.782,1026.115z"/>
					<path style="fill:#FFA283;" d="M1244.103,590.363c35.295,56.971,55.755,96.155,36.027,120.92
						c-21.555,27.057-67.167,21.754-88.291,44.75c-19.839-7.315-23.85-26.885-23.85-26.885s8.078-2.626,20.449-6.647
						c40.661-17.652,57.8-28.103,52.17-47.361c-5.63-19.258-25.497-44.973-25.497-44.973
						C1224.279,588.601,1244.103,590.363,1244.103,590.363z"/>
					<path style="fill:#F47458;" d="M1265.237,600.552c0,0-27.049,39.949-48.189,40.676c-13.874-20.896-20.063-32.899-20.199-30.609
						c-0.154,2.589-0.125,70.83-3.727,108.092c-27.898,16.152-159.108,5.495-159.196-11.581
						c-0.067-13.043,31.593-143.73,13.372-157.967c-6.623-5.175-62.943-35.379-62.943-35.379s23.493-46.213,37.951-60.54
						c0,0,28.221,14.759,55.179,25.602c35.368,14.226,65.144,18.162,84.822,27.298
						C1231.637,538.332,1236.842,553.809,1265.237,600.552z"/>
					<path style="fill:#466EB6;" d="M1165.304,507.544c-18.393,54.929,5.132,171.908,31.132,201.052
						c7.5-18.144-21.38-91.725-0.048-185.061C1197.004,518.8,1167.161,502.473,1165.304,507.544z"/>
					<path style="fill:#466EB6;" d="M1114.06,491.202c-26.576,28.877-66.453,136.178-67.293,141.513
						c1.168-93.763,36.967-138.181,42.918-149.074C1093.61,481.002,1114.526,488.371,1114.06,491.202z"/>
					<path style="fill:#FFA283;" d="M1109.422,463.854v49.024c0,0,17.953,19.312,41.227,5.941l10.721-63.089L1109.422,463.854z"/>
					<path style="opacity:0.68;fill:#FF7F4C;" d="M1109.422,488.559c14.831,3.741,33.163-2.567,48.928-15.065l3.02-17.764
						l-51.948,8.124V488.559z"/>
					<path style="fill:#FFA283;" d="M1110.789,378.823c0,0-50.585,60.705-27.542,90.496c23.047,29.789,75.319,9.555,101.174-28.104
						C1210.276,403.555,1120.345,350.719,1110.789,378.823z"/>
					<path style="fill:#011037;" d="M1160.254,400.745c0,0,18.548,0.562,11.239,17.986c-7.306,17.424-20.515,23.326-13.488,30.351
						c4.832,4.831,2.075,14.71-0.119,20.411c-1.135,2.948-1.309,6.178-0.385,9.199l0.123,0.402
						c2.048,6.715,8.499,11.084,15.492,10.481c17.019-1.469,45.491-10.039,43.906-51.172c0,0,14.18-26.419,0.065-46.653
						c-14.115-20.235-24.795-18.549-24.795-18.549s-5.057-19.111-20.798-23.608c-15.737-4.496-61.828-20.798-66.885,4.497
						C1099.547,379.385,1122.031,397.934,1160.254,400.745z"/>
					<path style="fill:#FFA283;" d="M1155.264,432.503c1.312-0.673,20.007-9.344,22.764,1.264
						c2.556,9.845-0.992,25.083-14.408,25.083C1150.207,458.85,1138.403,441.145,1155.264,432.503z"/>
					<path style="fill:#A4C0F5;" d="M1115.678,1077.962c0,0,0.465-8.124,0.264-17.67c-12.688,5.485-82.304,4.604-107.601,4.09
						c-2.204,5.077-2.633,10.035-0.862,13.579H1115.678z"/>
					<path style="fill:#A4C0F5;" d="M1237.824,1083.847c34.366-2.511,29.123-6.281,29.123-6.281s-0.566-8.144-1.797-17.803
						l-0.006,0.003c-23.926,21.353-61.283,10.451-77.629,4.094c-3.145,10.582-1.957,14.539-1.957,14.539
						S1203.457,1086.359,1237.824,1083.847z"/>
				</g>
				<path style="fill:#FFA283;" d="M923.458,400.638c8.294-2.295,18.749-6.749,26.433-10.27c-3.324-4.424-5.602-7.831-6.102-9.42
					c-2.336-7.425,12.411-36.481,9.993-38.861c-2.419-2.38-11.422,12.74-12.91,11.276c-1.488-1.465-3.604-34.67-8.527-34.572
					c-4.923,0.097,0.011,28.204-3.089,28.265c-3.1,0.061-8.505-33.452-13.362-29.994c-4.856,3.458,6.783,29.377,3.527,30.749
					c-3.256,1.372-12.628-23.176-16.092-23.107c-3.464,0.069-0.855,5.512,1.644,12c2.5,6.488,6.688,15.37,4.683,15.41
					c-2.005,0.04-11.797-15.456-15.239-14.267c-3.442,1.189,24.076,46.031,26.46,55.884
					C921.15,394.859,922.048,397.27,923.458,400.638z"/>
			</g>
		</g>
	</g>
</g>
</svg>
